<?xml version="1.0" standalone="no"?>
<!DOCTYPE svg PUBLIC "-//W3C//DTD SVG 20010904//EN"
 "http://www.w3.org/TR/2001/REC-SVG-20010904/DTD/svg10.dtd">
<svg version="1.0" xmlns="http://www.w3.org/2000/svg"
 width="512.000000pt" height="512.000000pt" viewBox="0 0 512.000000 512.000000"
 preserveAspectRatio="xMidYMid meet">
<metadata>
Created by potrace 1.14, written by Peter Selinger 2001-2017
</metadata>
<g transform="translate(0.000000,512.000000) scale(0.100000,-0.100000)"
fill="#000000" stroke="none">
<path d="M2235 4579 c-606 -57 -1142 -283 -1562 -660 -318 -285 -546 -686
-634 -1114 -29 -144 -37 -429 -15 -595 102 -771 604 -1338 1375 -1555 51 -14
159 -38 240 -52 130 -23 173 -26 396 -27 282 -1 380 10 624 70 295 72 577 206
755 357 l40 34 -21 26 -20 26 -59 -36 c-99 -60 -332 -169 -454 -211 -145 -50
-330 -96 -480 -119 -161 -25 -484 -24 -635 0 -645 107 -1145 440 -1381 922
-402 823 -66 1880 745 2344 285 163 611 276 957 332 261 41 660 37 959 -12
588 -96 1112 -371 1431 -751 279 -333 424 -705 424 -1090 0 -197 -32 -330
-121 -513 -147 -299 -400 -506 -687 -561 -100 -19 -165 -18 -257 6 -97 25
-152 56 -233 134 -69 65 -137 186 -148 261 -6 39 -5 41 47 75 37 24 62 52 83
90 28 50 31 63 31 145 0 115 -26 173 -99 222 -70 48 -104 55 -293 60 l-173 5
0 -401 0 -401 70 0 70 0 0 115 0 115 74 0 73 0 12 -62 c7 -35 33 -106 58 -158
78 -163 211 -275 393 -332 64 -20 95 -23 210 -22 117 0 147 4 224 28 363 110
645 403 782 811 127 381 88 808 -111 1206 -398 795 -1273 1274 -2360 1294
-126 2 -275 -1 -330 -6z m1180 -2339 c16 -8 40 -31 53 -50 20 -30 23 -44 20
-97 -6 -103 -58 -142 -191 -146 l-82 -2 -3 159 -3 158 88 -4 c50 -2 101 -10
118 -18z"/>
<path d="M2550 4111 c-5 -11 -10 -82 -10 -160 0 -114 3 -142 16 -155 18 -19
28 -20 55 -6 17 10 19 23 19 163 0 106 -4 157 -12 165 -18 18 -56 14 -68 -7z"/>
<path d="M2042 4058 c-7 -7 -12 -21 -12 -32 0 -32 60 -249 76 -273 18 -28 45
-29 68 -4 16 18 15 26 -19 157 -21 77 -42 145 -47 152 -13 15 -50 16 -66 0z"/>
<path d="M3067 4058 c-16 -13 -87 -241 -87 -283 0 -12 5 -26 12 -33 16 -16 53
-15 66 1 5 6 27 74 48 149 36 134 37 139 19 158 -21 23 -35 25 -58 8z"/>
<path d="M1551 3861 c-14 -25 -11 -32 73 -174 38 -64 77 -119 87 -122 27 -9
59 12 59 39 0 13 -33 80 -73 148 -67 111 -77 123 -105 126 -22 2 -34 -2 -41
-17z"/>
<path d="M3543 3868 c-36 -45 -143 -243 -143 -263 0 -28 31 -49 58 -40 10 3
51 61 91 129 83 142 90 179 35 184 -17 2 -35 -3 -41 -10z"/>
<path d="M802 3073 c6 -330 11 -357 94 -440 62 -63 121 -83 240 -83 188 0 295
87 324 261 5 35 10 171 10 302 l0 237 -69 0 -70 0 -3 -267 c-3 -254 -4 -270
-26 -314 -31 -64 -85 -93 -172 -93 -85 0 -133 27 -164 93 -19 43 -21 66 -24
314 l-3 267 -71 0 -70 0 4 -277z"/>
<path d="M1670 2955 l0 -395 70 0 70 0 0 115 0 115 63 0 c126 0 242 36 294 92
78 83 87 264 19 357 -67 90 -134 111 -353 111 l-163 0 0 -395z m339 251 c47
-25 71 -71 71 -136 0 -107 -55 -152 -190 -154 l-75 -1 -3 145 c-1 79 0 151 3
158 7 20 149 11 194 -12z"/>
<path d="M2380 2955 l0 -395 70 0 70 0 0 114 0 113 98 6 c152 9 239 49 289
134 25 44 28 57 28 143 0 112 -18 155 -87 214 -64 55 -115 66 -305 66 l-163 0
0 -395z m337 248 c98 -48 98 -215 -1 -266 -27 -14 -60 -20 -114 -21 l-77 -1
-3 159 -3 159 80 -6 c48 -3 96 -13 118 -24z"/>
<path d="M3090 2955 l0 -395 260 0 260 0 0 65 0 65 -190 0 -190 0 0 95 0 95
170 0 170 0 0 60 0 60 -170 0 -170 0 0 115 0 115 190 0 190 0 0 60 0 60 -260
0 -260 0 0 -395z"/>
<path d="M3790 2956 l0 -396 70 0 70 0 0 115 0 115 69 0 c66 0 70 -1 97 -34
16 -18 46 -61 66 -94 47 -79 90 -102 188 -102 l70 0 0 66 c0 53 -3 65 -14 61
-35 -13 -85 14 -138 75 -39 45 -49 63 -38 66 31 10 98 91 114 138 20 60 21
157 0 216 -19 57 -73 114 -133 142 -41 19 -68 21 -233 24 l-188 4 0 -396z
m350 249 c46 -24 70 -70 70 -135 0 -109 -52 -151 -189 -154 l-86 -1 -3 145
c-1 79 0 151 3 159 7 19 161 9 205 -14z"/>
<path d="M967 2384 c-125 -40 -192 -186 -136 -301 27 -56 81 -94 197 -140 110
-44 162 -85 162 -129 0 -60 -59 -104 -138 -104 -48 0 -137 26 -180 52 -18 11
-34 19 -36 17 -3 -5 -46 -119 -46 -124 0 -9 125 -55 178 -66 110 -21 238 6
301 64 55 51 78 167 47 240 -22 55 -94 108 -215 161 -66 28 -119 58 -131 73
-29 37 -26 79 8 113 42 42 91 48 176 21 39 -12 77 -23 84 -24 15 -2 56 89 48
108 -15 41 -232 67 -319 39z"/>
<path d="M2370 2381 c-70 -22 -95 -36 -147 -78 -202 -163 -189 -495 24 -644
74 -51 150 -73 253 -73 194 0 351 108 405 279 28 89 18 221 -22 307 -69 147
-208 229 -388 227 -38 0 -95 -8 -125 -18z m258 -137 c167 -82 197 -334 55
-465 -59 -55 -104 -72 -183 -72 -172 0 -300 160 -268 335 22 122 98 200 223
232 40 10 120 -4 173 -30z"/>
<path d="M1390 2325 l0 -65 135 0 135 0 0 -335 0 -336 68 3 67 3 3 333 2 332
130 0 130 0 0 65 0 65 -335 0 -335 0 0 -65z"/>
<path d="M3710 2385 c0 -3 65 -114 145 -245 l146 -240 -2 -152 -1 -153 66 -3
66 -3 0 152 0 152 38 66 c21 36 89 148 150 249 l112 183 -81 -3 -82 -3 -94
-165 c-52 -91 -98 -168 -101 -172 -4 -4 -52 72 -107 167 l-100 175 -77 0 c-43
0 -78 -2 -78 -5z"/>
</g>
</svg>
